<?xml version="1.0" encoding="UTF-8" standalone="no"?>
<!DOCTYPE svg PUBLIC "-//W3C//DTD SVG 1.1//EN"
 "http://www.w3.org/Graphics/SVG/1.1/DTD/svg11.dtd">
<!-- Generated by graphviz version 2.28.0 (20120309.2159)
 -->
<!-- Title: controllers_diagram Pages: 1 -->
<svg width="476pt" height="565pt"
 viewBox="0.00 0.00 475.63 565.20" xmlns="http://www.w3.org/2000/svg" xmlns:xlink="http://www.w3.org/1999/xlink">
<g id="graph1" class="graph" transform="scale(1 1) rotate(0) translate(4 561.2)">
<title>controllers_diagram</title>
<polygon fill="white" stroke="white" points="-4,5 -4,-561.2 472.635,-561.2 472.635,5 -4,5"/>
<!-- _diagram_info -->
<g id="node1" class="node"><title>_diagram_info</title>
<text text-anchor="start" x="144" y="-69" font-family="Times,serif" font-size="13.00">Controllers diagram</text>
<text text-anchor="start" x="144" y="-53.4" font-family="Times,serif" font-size="13.00">Date: Mar 09 2012 &#45; 22:21</text>
<text text-anchor="start" x="144" y="-37.8" font-family="Times,serif" font-size="13.00">Migration version: 20120306195253</text>
<text text-anchor="start" x="144" y="-22.2" font-family="Times,serif" font-size="13.00">Generated by RailRoady 1.0.7</text>
<text text-anchor="start" x="144" y="-6.6" font-family="Times,serif" font-size="13.00">http://railroady.prestonlee.com</text>
</g>
<!-- ApplicationController -->
<g id="node2" class="node"><title>ApplicationController</title>
<polyline fill="none" stroke="black" points="284,-357.5 455.635,-357.5 "/>
<path fill="none" stroke="black" d="M455.635,-357.5C461.635,-357.5 467.635,-363.5 467.635,-369.5"/>
<polyline fill="none" stroke="black" points="467.635,-369.5 467.635,-460.7 "/>
<path fill="none" stroke="black" d="M467.635,-460.7C467.635,-466.7 461.635,-472.7 455.635,-472.7"/>
<polyline fill="none" stroke="black" points="455.635,-472.7 284,-472.7 "/>
<path fill="none" stroke="black" d="M284,-472.7C278,-472.7 272,-466.7 272,-460.7"/>
<polyline fill="none" stroke="black" points="272,-460.7 272,-369.5 "/>
<path fill="none" stroke="black" d="M272,-369.5C272,-363.5 278,-357.5 284,-357.5"/>
<text text-anchor="middle" x="369.817" y="-454.7" font-family="Times,serif" font-size="14.00">ApplicationController</text>
<polyline fill="none" stroke="black" points="272,-447.9 467.635,-447.9 "/>
<text text-anchor="start" x="280" y="-429.9" font-family="Times,serif" font-size="14.00">_one_time_conditions_valid_8?</text>
<polyline fill="none" stroke="black" points="272,-423.1 467.635,-423.1 "/>
<polyline fill="none" stroke="black" points="272,-399.1 467.635,-399.1 "/>
<text text-anchor="start" x="280" y="-381.1" font-family="Times,serif" font-size="14.00">_layout</text>
<text text-anchor="start" x="280" y="-364.3" font-family="Times,serif" font-size="14.00">current_cart</text>
</g>
<!-- CartsController -->
<g id="node3" class="node"><title>CartsController</title>
<polyline fill="none" stroke="black" points="148,-357.5 227.097,-357.5 "/>
<path fill="none" stroke="black" d="M227.097,-357.5C233.097,-357.5 239.097,-363.5 239.097,-369.5"/>
<polyline fill="none" stroke="black" points="239.097,-369.5 239.097,-544.7 "/>
<path fill="none" stroke="black" d="M239.097,-544.7C239.097,-550.7 233.097,-556.7 227.097,-556.7"/>
<polyline fill="none" stroke="black" points="227.097,-556.7 148,-556.7 "/>
<path fill="none" stroke="black" d="M148,-556.7C142,-556.7 136,-550.7 136,-544.7"/>
<polyline fill="none" stroke="black" points="136,-544.7 136,-369.5 "/>
<path fill="none" stroke="black" d="M136,-369.5C136,-363.5 142,-357.5 148,-357.5"/>
<text text-anchor="middle" x="187.548" y="-538.7" font-family="Times,serif" font-size="14.00">CartsController</text>
<polyline fill="none" stroke="black" points="136,-531.9 239.097,-531.9 "/>
<text text-anchor="start" x="144" y="-513.9" font-family="Times,serif" font-size="14.00">create</text>
<text text-anchor="start" x="144" y="-497.1" font-family="Times,serif" font-size="14.00">destroy</text>
<text text-anchor="start" x="144" y="-480.3" font-family="Times,serif" font-size="14.00">edit</text>
<text text-anchor="start" x="144" y="-463.5" font-family="Times,serif" font-size="14.00">index</text>
<text text-anchor="start" x="144" y="-446.7" font-family="Times,serif" font-size="14.00">new</text>
<text text-anchor="start" x="144" y="-429.9" font-family="Times,serif" font-size="14.00">show</text>
<text text-anchor="start" x="144" y="-413.1" font-family="Times,serif" font-size="14.00">update</text>
<polyline fill="none" stroke="black" points="136,-406.3 239.097,-406.3 "/>
<polyline fill="none" stroke="black" points="136,-382.3 239.097,-382.3 "/>
<text text-anchor="start" x="144" y="-364.3" font-family="Times,serif" font-size="14.00">_layout</text>
</g>
<!-- LineItemsController -->
<g id="node4" class="node"><title>LineItemsController</title>
<polyline fill="none" stroke="black" points="80,-119.5 186.304,-119.5 "/>
<path fill="none" stroke="black" d="M186.304,-119.5C192.304,-119.5 198.304,-125.5 198.304,-131.5"/>
<polyline fill="none" stroke="black" points="198.304,-131.5 198.304,-306.7 "/>
<path fill="none" stroke="black" d="M198.304,-306.7C198.304,-312.7 192.304,-318.7 186.304,-318.7"/>
<polyline fill="none" stroke="black" points="186.304,-318.7 80,-318.7 "/>
<path fill="none" stroke="black" d="M80,-318.7C74,-318.7 68,-312.7 68,-306.7"/>
<polyline fill="none" stroke="black" points="68,-306.7 68,-131.5 "/>
<path fill="none" stroke="black" d="M68,-131.5C68,-125.5 74,-119.5 80,-119.5"/>
<text text-anchor="middle" x="133.152" y="-300.7" font-family="Times,serif" font-size="14.00">LineItemsController</text>
<polyline fill="none" stroke="black" points="68,-293.9 198.304,-293.9 "/>
<text text-anchor="start" x="76" y="-275.9" font-family="Times,serif" font-size="14.00">create</text>
<text text-anchor="start" x="76" y="-259.1" font-family="Times,serif" font-size="14.00">destroy</text>
<text text-anchor="start" x="76" y="-242.3" font-family="Times,serif" font-size="14.00">edit</text>
<text text-anchor="start" x="76" y="-225.5" font-family="Times,serif" font-size="14.00">index</text>
<text text-anchor="start" x="76" y="-208.7" font-family="Times,serif" font-size="14.00">new</text>
<text text-anchor="start" x="76" y="-191.9" font-family="Times,serif" font-size="14.00">show</text>
<text text-anchor="start" x="76" y="-175.1" font-family="Times,serif" font-size="14.00">update</text>
<polyline fill="none" stroke="black" points="68,-168.3 198.304,-168.3 "/>
<polyline fill="none" stroke="black" points="68,-144.3 198.304,-144.3 "/>
<text text-anchor="start" x="76" y="-126.3" font-family="Times,serif" font-size="14.00">_layout</text>
</g>
<!-- ProductsController -->
<g id="node5" class="node"><title>ProductsController</title>
<polyline fill="none" stroke="black" points="250,-119.5 348.545,-119.5 "/>
<path fill="none" stroke="black" d="M348.545,-119.5C354.545,-119.5 360.545,-125.5 360.545,-131.5"/>
<polyline fill="none" stroke="black" points="360.545,-131.5 360.545,-306.7 "/>
<path fill="none" stroke="black" d="M360.545,-306.7C360.545,-312.7 354.545,-318.7 348.545,-318.7"/>
<polyline fill="none" stroke="black" points="348.545,-318.7 250,-318.7 "/>
<path fill="none" stroke="black" d="M250,-318.7C244,-318.7 238,-312.7 238,-306.7"/>
<polyline fill="none" stroke="black" points="238,-306.7 238,-131.5 "/>
<path fill="none" stroke="black" d="M238,-131.5C238,-125.5 244,-119.5 250,-119.5"/>
<text text-anchor="middle" x="299.272" y="-300.7" font-family="Times,serif" font-size="14.00">ProductsController</text>
<polyline fill="none" stroke="black" points="238,-293.9 360.545,-293.9 "/>
<text text-anchor="start" x="246" y="-275.9" font-family="Times,serif" font-size="14.00">create</text>
<text text-anchor="start" x="246" y="-259.1" font-family="Times,serif" font-size="14.00">destroy</text>
<text text-anchor="start" x="246" y="-242.3" font-family="Times,serif" font-size="14.00">edit</text>
<text text-anchor="start" x="246" y="-225.5" font-family="Times,serif" font-size="14.00">index</text>
<text text-anchor="start" x="246" y="-208.7" font-family="Times,serif" font-size="14.00">new</text>
<text text-anchor="start" x="246" y="-191.9" font-family="Times,serif" font-size="14.00">show</text>
<text text-anchor="start" x="246" y="-175.1" font-family="Times,serif" font-size="14.00">update</text>
<polyline fill="none" stroke="black" points="238,-168.3 360.545,-168.3 "/>
<polyline fill="none" stroke="black" points="238,-144.3 360.545,-144.3 "/>
<text text-anchor="start" x="246" y="-126.3" font-family="Times,serif" font-size="14.00">_layout</text>
</g>
<!-- StoreController -->
<g id="node6" class="node"><title>StoreController</title>
<polyline fill="none" stroke="black" points="12,-357.5 91.0967,-357.5 "/>
<path fill="none" stroke="black" d="M91.0967,-357.5C97.0967,-357.5 103.097,-363.5 103.097,-369.5"/>
<polyline fill="none" stroke="black" points="103.097,-369.5 103.097,-443.9 "/>
<path fill="none" stroke="black" d="M103.097,-443.9C103.097,-449.9 97.0967,-455.9 91.0967,-455.9"/>
<polyline fill="none" stroke="black" points="91.0967,-455.9 12,-455.9 "/>
<path fill="none" stroke="black" d="M12,-455.9C6,-455.9 0,-449.9 0,-443.9"/>
<polyline fill="none" stroke="black" points="0,-443.9 0,-369.5 "/>
<path fill="none" stroke="black" d="M0,-369.5C0,-363.5 6,-357.5 12,-357.5"/>
<text text-anchor="middle" x="51.5483" y="-437.9" font-family="Times,serif" font-size="14.00">StoreController</text>
<polyline fill="none" stroke="black" points="0,-431.1 103.097,-431.1 "/>
<text text-anchor="start" x="8" y="-413.1" font-family="Times,serif" font-size="14.00">index</text>
<polyline fill="none" stroke="black" points="0,-406.3 103.097,-406.3 "/>
<polyline fill="none" stroke="black" points="0,-382.3 103.097,-382.3 "/>
<text text-anchor="start" x="8" y="-364.3" font-family="Times,serif" font-size="14.00">_layout</text>
</g>
</g>
</svg>
