<?xml version="1.0" encoding="UTF-8" standalone="no"?>
<!DOCTYPE svg PUBLIC "-//W3C//DTD SVG 1.1//EN"
 "http://www.w3.org/Graphics/SVG/1.1/DTD/svg11.dtd">
<!-- Generated by graphviz version 2.28.0 (20120309.2159)
 -->
<!-- Title: controllers_diagram Pages: 1 -->
<svg width="700pt" height="731pt"
 viewBox="0.00 0.00 700.10 730.80" xmlns="http://www.w3.org/2000/svg" xmlns:xlink="http://www.w3.org/1999/xlink">
<g id="graph1" class="graph" transform="scale(1 1) rotate(0) translate(4 726.8)">
<title>controllers_diagram</title>
<polygon fill="white" stroke="white" points="-4,5 -4,-726.8 697.097,-726.8 697.097,5 -4,5"/>
<!-- _diagram_info -->
<g id="node1" class="node"><title>_diagram_info</title>
<text text-anchor="start" x="46" y="-164" font-family="Times,serif" font-size="13.00">Controllers diagram</text>
<text text-anchor="start" x="46" y="-148.4" font-family="Times,serif" font-size="13.00">Date: Mar 14 2012 &#45; 20:49</text>
<text text-anchor="start" x="46" y="-132.8" font-family="Times,serif" font-size="13.00">Migration version: 20120313183801</text>
<text text-anchor="start" x="46" y="-117.2" font-family="Times,serif" font-size="13.00">Generated by RailRoady 1.0.7</text>
<text text-anchor="start" x="46" y="-101.6" font-family="Times,serif" font-size="13.00">http://railroady.prestonlee.com</text>
</g>
<!-- AdminController -->
<g id="node2" class="node"><title>AdminController</title>
<polyline fill="none" stroke="black" points="449,-57.5 537.435,-57.5 "/>
<path fill="none" stroke="black" d="M537.435,-57.5C543.435,-57.5 549.435,-63.5 549.435,-69.5"/>
<polyline fill="none" stroke="black" points="549.435,-69.5 549.435,-143.9 "/>
<path fill="none" stroke="black" d="M549.435,-143.9C549.435,-149.9 543.435,-155.9 537.435,-155.9"/>
<polyline fill="none" stroke="black" points="537.435,-155.9 449,-155.9 "/>
<path fill="none" stroke="black" d="M449,-155.9C443,-155.9 437,-149.9 437,-143.9"/>
<polyline fill="none" stroke="black" points="437,-143.9 437,-69.5 "/>
<path fill="none" stroke="black" d="M437,-69.5C437,-63.5 443,-57.5 449,-57.5"/>
<text text-anchor="middle" x="493.217" y="-137.9" font-family="Times,serif" font-size="14.00">AdminController</text>
<polyline fill="none" stroke="black" points="437,-131.1 549.435,-131.1 "/>
<text text-anchor="start" x="445" y="-113.1" font-family="Times,serif" font-size="14.00">index</text>
<polyline fill="none" stroke="black" points="437,-106.3 549.435,-106.3 "/>
<polyline fill="none" stroke="black" points="437,-82.3 549.435,-82.3 "/>
<text text-anchor="start" x="445" y="-64.3" font-family="Times,serif" font-size="14.00">_layout</text>
</g>
<!-- ApplicationController -->
<g id="node3" class="node"><title>ApplicationController</title>
<polyline fill="none" stroke="black" points="12,-589.5 190.635,-589.5 "/>
<path fill="none" stroke="black" d="M190.635,-589.5C196.635,-589.5 202.635,-595.5 202.635,-601.5"/>
<polyline fill="none" stroke="black" points="202.635,-601.5 202.635,-710.3 "/>
<path fill="none" stroke="black" d="M202.635,-710.3C202.635,-716.3 196.635,-722.3 190.635,-722.3"/>
<polyline fill="none" stroke="black" points="190.635,-722.3 12,-722.3 "/>
<path fill="none" stroke="black" d="M12,-722.3C6,-722.3 0,-716.3 0,-710.3"/>
<polyline fill="none" stroke="black" points="0,-710.3 0,-601.5 "/>
<path fill="none" stroke="black" d="M0,-601.5C0,-595.5 6,-589.5 12,-589.5"/>
<text text-anchor="middle" x="101.317" y="-704.3" font-family="Times,serif" font-size="14.00">ApplicationController</text>
<polyline fill="none" stroke="black" points="0,-697.5 202.635,-697.5 "/>
<text text-anchor="start" x="8" y="-679.5" font-family="Times,serif" font-size="14.00">_one_time_conditions_valid_10?</text>
<text text-anchor="start" x="8" y="-662.7" font-family="Times,serif" font-size="14.00">_one_time_conditions_valid_8?</text>
<polyline fill="none" stroke="black" points="0,-655.9 202.635,-655.9 "/>
<text text-anchor="start" x="8" y="-637.9" font-family="Times,serif" font-size="14.00">authorize</text>
<polyline fill="none" stroke="black" points="0,-631.1 202.635,-631.1 "/>
<text text-anchor="start" x="8" y="-613.1" font-family="Times,serif" font-size="14.00">_layout</text>
<text text-anchor="start" x="8" y="-596.3" font-family="Times,serif" font-size="14.00">current_cart</text>
</g>
<!-- CartsController -->
<g id="node4" class="node"><title>CartsController</title>
<polyline fill="none" stroke="black" points="411,-190.5 589.635,-190.5 "/>
<path fill="none" stroke="black" d="M589.635,-190.5C595.635,-190.5 601.635,-196.5 601.635,-202.5"/>
<polyline fill="none" stroke="black" points="601.635,-202.5 601.635,-394.5 "/>
<path fill="none" stroke="black" d="M601.635,-394.5C601.635,-400.5 595.635,-406.5 589.635,-406.5"/>
<polyline fill="none" stroke="black" points="589.635,-406.5 411,-406.5 "/>
<path fill="none" stroke="black" d="M411,-406.5C405,-406.5 399,-400.5 399,-394.5"/>
<polyline fill="none" stroke="black" points="399,-394.5 399,-202.5 "/>
<path fill="none" stroke="black" d="M399,-202.5C399,-196.5 405,-190.5 411,-190.5"/>
<text text-anchor="middle" x="500.317" y="-388.5" font-family="Times,serif" font-size="14.00">CartsController</text>
<polyline fill="none" stroke="black" points="399,-381.7 601.635,-381.7 "/>
<text text-anchor="start" x="407" y="-363.7" font-family="Times,serif" font-size="14.00">_one_time_conditions_valid_29?</text>
<text text-anchor="start" x="407" y="-346.9" font-family="Times,serif" font-size="14.00">create</text>
<text text-anchor="start" x="407" y="-330.1" font-family="Times,serif" font-size="14.00">destroy</text>
<text text-anchor="start" x="407" y="-313.3" font-family="Times,serif" font-size="14.00">edit</text>
<text text-anchor="start" x="407" y="-296.5" font-family="Times,serif" font-size="14.00">index</text>
<text text-anchor="start" x="407" y="-279.7" font-family="Times,serif" font-size="14.00">new</text>
<text text-anchor="start" x="407" y="-262.9" font-family="Times,serif" font-size="14.00">show</text>
<text text-anchor="start" x="407" y="-246.1" font-family="Times,serif" font-size="14.00">update</text>
<polyline fill="none" stroke="black" points="399,-239.3 601.635,-239.3 "/>
<polyline fill="none" stroke="black" points="399,-215.3 601.635,-215.3 "/>
<text text-anchor="start" x="407" y="-197.3" font-family="Times,serif" font-size="14.00">_layout</text>
</g>
<!-- LineItemsController -->
<g id="node5" class="node"><title>LineItemsController</title>
<polyline fill="none" stroke="black" points="411,-437.5 589.635,-437.5 "/>
<path fill="none" stroke="black" d="M589.635,-437.5C595.635,-437.5 601.635,-443.5 601.635,-449.5"/>
<polyline fill="none" stroke="black" points="601.635,-449.5 601.635,-641.5 "/>
<path fill="none" stroke="black" d="M601.635,-641.5C601.635,-647.5 595.635,-653.5 589.635,-653.5"/>
<polyline fill="none" stroke="black" points="589.635,-653.5 411,-653.5 "/>
<path fill="none" stroke="black" d="M411,-653.5C405,-653.5 399,-647.5 399,-641.5"/>
<polyline fill="none" stroke="black" points="399,-641.5 399,-449.5 "/>
<path fill="none" stroke="black" d="M399,-449.5C399,-443.5 405,-437.5 411,-437.5"/>
<text text-anchor="middle" x="500.317" y="-635.5" font-family="Times,serif" font-size="14.00">LineItemsController</text>
<polyline fill="none" stroke="black" points="399,-628.7 601.635,-628.7 "/>
<text text-anchor="start" x="407" y="-610.7" font-family="Times,serif" font-size="14.00">_one_time_conditions_valid_39?</text>
<text text-anchor="start" x="407" y="-593.9" font-family="Times,serif" font-size="14.00">create</text>
<text text-anchor="start" x="407" y="-577.1" font-family="Times,serif" font-size="14.00">destroy</text>
<text text-anchor="start" x="407" y="-560.3" font-family="Times,serif" font-size="14.00">edit</text>
<text text-anchor="start" x="407" y="-543.5" font-family="Times,serif" font-size="14.00">index</text>
<text text-anchor="start" x="407" y="-526.7" font-family="Times,serif" font-size="14.00">new</text>
<text text-anchor="start" x="407" y="-509.9" font-family="Times,serif" font-size="14.00">show</text>
<text text-anchor="start" x="407" y="-493.1" font-family="Times,serif" font-size="14.00">update</text>
<polyline fill="none" stroke="black" points="399,-486.3 601.635,-486.3 "/>
<polyline fill="none" stroke="black" points="399,-462.3 601.635,-462.3 "/>
<text text-anchor="start" x="407" y="-444.3" font-family="Times,serif" font-size="14.00">_layout</text>
</g>
<!-- OrdersController -->
<g id="node6" class="node"><title>OrdersController</title>
<polyline fill="none" stroke="black" points="164,-209.5 342.635,-209.5 "/>
<path fill="none" stroke="black" d="M342.635,-209.5C348.635,-209.5 354.635,-215.5 354.635,-221.5"/>
<polyline fill="none" stroke="black" points="354.635,-221.5 354.635,-413.5 "/>
<path fill="none" stroke="black" d="M354.635,-413.5C354.635,-419.5 348.635,-425.5 342.635,-425.5"/>
<polyline fill="none" stroke="black" points="342.635,-425.5 164,-425.5 "/>
<path fill="none" stroke="black" d="M164,-425.5C158,-425.5 152,-419.5 152,-413.5"/>
<polyline fill="none" stroke="black" points="152,-413.5 152,-221.5 "/>
<path fill="none" stroke="black" d="M152,-221.5C152,-215.5 158,-209.5 164,-209.5"/>
<text text-anchor="middle" x="253.317" y="-407.5" font-family="Times,serif" font-size="14.00">OrdersController</text>
<polyline fill="none" stroke="black" points="152,-400.7 354.635,-400.7 "/>
<text text-anchor="start" x="160" y="-382.7" font-family="Times,serif" font-size="14.00">_one_time_conditions_valid_63?</text>
<text text-anchor="start" x="160" y="-365.9" font-family="Times,serif" font-size="14.00">create</text>
<text text-anchor="start" x="160" y="-349.1" font-family="Times,serif" font-size="14.00">destroy</text>
<text text-anchor="start" x="160" y="-332.3" font-family="Times,serif" font-size="14.00">edit</text>
<text text-anchor="start" x="160" y="-315.5" font-family="Times,serif" font-size="14.00">index</text>
<text text-anchor="start" x="160" y="-298.7" font-family="Times,serif" font-size="14.00">new</text>
<text text-anchor="start" x="160" y="-281.9" font-family="Times,serif" font-size="14.00">show</text>
<text text-anchor="start" x="160" y="-265.1" font-family="Times,serif" font-size="14.00">update</text>
<polyline fill="none" stroke="black" points="152,-258.3 354.635,-258.3 "/>
<polyline fill="none" stroke="black" points="152,-234.3 354.635,-234.3 "/>
<text text-anchor="start" x="160" y="-216.3" font-family="Times,serif" font-size="14.00">_layout</text>
</g>
<!-- ProductsController -->
<g id="node7" class="node"><title>ProductsController</title>
<polyline fill="none" stroke="black" points="259,-456.5 357.545,-456.5 "/>
<path fill="none" stroke="black" d="M357.545,-456.5C363.545,-456.5 369.545,-462.5 369.545,-468.5"/>
<polyline fill="none" stroke="black" points="369.545,-468.5 369.545,-660.5 "/>
<path fill="none" stroke="black" d="M369.545,-660.5C369.545,-666.5 363.545,-672.5 357.545,-672.5"/>
<polyline fill="none" stroke="black" points="357.545,-672.5 259,-672.5 "/>
<path fill="none" stroke="black" d="M259,-672.5C253,-672.5 247,-666.5 247,-660.5"/>
<polyline fill="none" stroke="black" points="247,-660.5 247,-468.5 "/>
<path fill="none" stroke="black" d="M247,-468.5C247,-462.5 253,-456.5 259,-456.5"/>
<text text-anchor="middle" x="308.272" y="-654.5" font-family="Times,serif" font-size="14.00">ProductsController</text>
<polyline fill="none" stroke="black" points="247,-647.7 369.545,-647.7 "/>
<text text-anchor="start" x="255" y="-629.7" font-family="Times,serif" font-size="14.00">create</text>
<text text-anchor="start" x="255" y="-612.9" font-family="Times,serif" font-size="14.00">destroy</text>
<text text-anchor="start" x="255" y="-596.1" font-family="Times,serif" font-size="14.00">edit</text>
<text text-anchor="start" x="255" y="-579.3" font-family="Times,serif" font-size="14.00">index</text>
<text text-anchor="start" x="255" y="-562.5" font-family="Times,serif" font-size="14.00">new</text>
<text text-anchor="start" x="255" y="-545.7" font-family="Times,serif" font-size="14.00">show</text>
<text text-anchor="start" x="255" y="-528.9" font-family="Times,serif" font-size="14.00">update</text>
<text text-anchor="start" x="255" y="-512.1" font-family="Times,serif" font-size="14.00">who_bought</text>
<polyline fill="none" stroke="black" points="247,-505.3 369.545,-505.3 "/>
<polyline fill="none" stroke="black" points="247,-481.3 369.545,-481.3 "/>
<text text-anchor="start" x="255" y="-463.3" font-family="Times,serif" font-size="14.00">_layout</text>
</g>
<!-- SessionsController -->
<g id="node8" class="node"><title>SessionsController</title>
<polyline fill="none" stroke="black" points="297,-19.5 394.779,-19.5 "/>
<path fill="none" stroke="black" d="M394.779,-19.5C400.779,-19.5 406.779,-25.5 406.779,-31.5"/>
<polyline fill="none" stroke="black" points="406.779,-31.5 406.779,-139.5 "/>
<path fill="none" stroke="black" d="M406.779,-139.5C406.779,-145.5 400.779,-151.5 394.779,-151.5"/>
<polyline fill="none" stroke="black" points="394.779,-151.5 297,-151.5 "/>
<path fill="none" stroke="black" d="M297,-151.5C291,-151.5 285,-145.5 285,-139.5"/>
<polyline fill="none" stroke="black" points="285,-139.5 285,-31.5 "/>
<path fill="none" stroke="black" d="M285,-31.5C285,-25.5 291,-19.5 297,-19.5"/>
<text text-anchor="middle" x="345.89" y="-133.5" font-family="Times,serif" font-size="14.00">SessionsController</text>
<polyline fill="none" stroke="black" points="285,-126.7 406.779,-126.7 "/>
<text text-anchor="start" x="293" y="-108.7" font-family="Times,serif" font-size="14.00">create</text>
<text text-anchor="start" x="293" y="-91.9" font-family="Times,serif" font-size="14.00">destroy</text>
<text text-anchor="start" x="293" y="-75.1" font-family="Times,serif" font-size="14.00">new</text>
<polyline fill="none" stroke="black" points="285,-68.3 406.779,-68.3 "/>
<polyline fill="none" stroke="black" points="285,-44.3 406.779,-44.3 "/>
<text text-anchor="start" x="293" y="-26.3" font-family="Times,serif" font-size="14.00">_layout</text>
</g>
<!-- StoreController -->
<g id="node9" class="node"><title>StoreController</title>
<polyline fill="none" stroke="black" points="601,-0.5 680.097,-0.5 "/>
<path fill="none" stroke="black" d="M680.097,-0.5C686.097,-0.5 692.097,-6.5 692.097,-12.5"/>
<polyline fill="none" stroke="black" points="692.097,-12.5 692.097,-86.9 "/>
<path fill="none" stroke="black" d="M692.097,-86.9C692.097,-92.9 686.097,-98.9 680.097,-98.9"/>
<polyline fill="none" stroke="black" points="680.097,-98.9 601,-98.9 "/>
<path fill="none" stroke="black" d="M601,-98.9C595,-98.9 589,-92.9 589,-86.9"/>
<polyline fill="none" stroke="black" points="589,-86.9 589,-12.5 "/>
<path fill="none" stroke="black" d="M589,-12.5C589,-6.5 595,-0.5 601,-0.5"/>
<text text-anchor="middle" x="640.548" y="-80.9" font-family="Times,serif" font-size="14.00">StoreController</text>
<polyline fill="none" stroke="black" points="589,-74.1 692.097,-74.1 "/>
<text text-anchor="start" x="597" y="-56.1" font-family="Times,serif" font-size="14.00">index</text>
<polyline fill="none" stroke="black" points="589,-49.3 692.097,-49.3 "/>
<polyline fill="none" stroke="black" points="589,-25.3 692.097,-25.3 "/>
<text text-anchor="start" x="597" y="-7.3" font-family="Times,serif" font-size="14.00">_layout</text>
</g>
<!-- UsersController -->
<g id="node10" class="node"><title>UsersController</title>
<polyline fill="none" stroke="black" points="31,-323.5 112.428,-323.5 "/>
<path fill="none" stroke="black" d="M112.428,-323.5C118.428,-323.5 124.428,-329.5 124.428,-335.5"/>
<polyline fill="none" stroke="black" points="124.428,-335.5 124.428,-510.7 "/>
<path fill="none" stroke="black" d="M124.428,-510.7C124.428,-516.7 118.428,-522.7 112.428,-522.7"/>
<polyline fill="none" stroke="black" points="112.428,-522.7 31,-522.7 "/>
<path fill="none" stroke="black" d="M31,-522.7C25,-522.7 19,-516.7 19,-510.7"/>
<polyline fill="none" stroke="black" points="19,-510.7 19,-335.5 "/>
<path fill="none" stroke="black" d="M19,-335.5C19,-329.5 25,-323.5 31,-323.5"/>
<text text-anchor="middle" x="71.7139" y="-504.7" font-family="Times,serif" font-size="14.00">UsersController</text>
<polyline fill="none" stroke="black" points="19,-497.9 124.428,-497.9 "/>
<text text-anchor="start" x="27" y="-479.9" font-family="Times,serif" font-size="14.00">create</text>
<text text-anchor="start" x="27" y="-463.1" font-family="Times,serif" font-size="14.00">destroy</text>
<text text-anchor="start" x="27" y="-446.3" font-family="Times,serif" font-size="14.00">edit</text>
<text text-anchor="start" x="27" y="-429.5" font-family="Times,serif" font-size="14.00">index</text>
<text text-anchor="start" x="27" y="-412.7" font-family="Times,serif" font-size="14.00">new</text>
<text text-anchor="start" x="27" y="-395.9" font-family="Times,serif" font-size="14.00">show</text>
<text text-anchor="start" x="27" y="-379.1" font-family="Times,serif" font-size="14.00">update</text>
<polyline fill="none" stroke="black" points="19,-372.3 124.428,-372.3 "/>
<polyline fill="none" stroke="black" points="19,-348.3 124.428,-348.3 "/>
<text text-anchor="start" x="27" y="-330.3" font-family="Times,serif" font-size="14.00">_layout</text>
</g>
</g>
</svg>
