<?xml version="1.0" encoding="UTF-8" standalone="no"?>
<!DOCTYPE svg PUBLIC "-//W3C//DTD SVG 1.1//EN"
 "http://www.w3.org/Graphics/SVG/1.1/DTD/svg11.dtd">
<!-- Generated by graphviz version 2.28.0 (20120309.2159)
 -->
<!-- Title: models_diagram Pages: 1 -->
<svg width="532pt" height="452pt"
 viewBox="0.00 0.00 532.00 452.00" xmlns="http://www.w3.org/2000/svg" xmlns:xlink="http://www.w3.org/1999/xlink">
<g id="graph1" class="graph" transform="scale(1 1) rotate(0) translate(4 448)">
<title>models_diagram</title>
<polygon fill="white" stroke="white" points="-4,5 -4,-448 529,-448 529,5 -4,5"/>
<!-- _diagram_info -->
<g id="node1" class="node"><title>_diagram_info</title>
<text text-anchor="start" x="7.31226" y="-394" font-family="Times,serif" font-size="13.00">Models diagram</text>
<text text-anchor="start" x="7.31226" y="-378.4" font-family="Times,serif" font-size="13.00">Date: Mar 14 2012 &#45; 20:48</text>
<text text-anchor="start" x="7.31226" y="-362.8" font-family="Times,serif" font-size="13.00">Migration version: 20120313183801</text>
<text text-anchor="start" x="7.31226" y="-347.2" font-family="Times,serif" font-size="13.00">Generated by RailRoady 1.0.7</text>
<text text-anchor="start" x="7.31226" y="-331.6" font-family="Times,serif" font-size="13.00">http://railroady.prestonlee.com</text>
</g>
<!-- Cart -->
<g id="node2" class="node"><title>Cart</title>
<polyline fill="none" stroke="black" points="93.4946,-154.8 202.505,-154.8 "/>
<path fill="none" stroke="black" d="M202.505,-154.8C208.505,-154.8 214.505,-160.8 214.505,-166.8"/>
<polyline fill="none" stroke="black" points="214.505,-166.8 214.505,-209.2 "/>
<path fill="none" stroke="black" d="M214.505,-209.2C214.505,-215.2 208.505,-221.2 202.505,-221.2"/>
<polyline fill="none" stroke="black" points="202.505,-221.2 93.4946,-221.2 "/>
<path fill="none" stroke="black" d="M93.4946,-221.2C87.4946,-221.2 81.4946,-215.2 81.4946,-209.2"/>
<polyline fill="none" stroke="black" points="81.4946,-209.2 81.4946,-166.8 "/>
<path fill="none" stroke="black" d="M81.4946,-166.8C81.4946,-160.8 87.4946,-154.8 93.4946,-154.8"/>
<text text-anchor="middle" x="148" y="-203.2" font-family="Times,serif" font-size="14.00">Cart</text>
<polyline fill="none" stroke="black" points="81.4946,-196.4 214.505,-196.4 "/>
<text text-anchor="start" x="89.4946" y="-178.4" font-family="Times,serif" font-size="14.00">created_at :datetime</text>
<text text-anchor="start" x="89.4946" y="-161.6" font-family="Times,serif" font-size="14.00">updated_at :datetime</text>
</g>
<!-- LineItem -->
<g id="node3" class="node"><title>LineItem</title>
<polyline fill="none" stroke="black" points="188.495,-0.4 297.505,-0.4 "/>
<path fill="none" stroke="black" d="M297.505,-0.4C303.505,-0.4 309.505,-6.4 309.505,-12.4"/>
<polyline fill="none" stroke="black" points="309.505,-12.4 309.505,-71.6 "/>
<path fill="none" stroke="black" d="M309.505,-71.6C309.505,-77.6 303.505,-83.6 297.505,-83.6"/>
<polyline fill="none" stroke="black" points="297.505,-83.6 188.495,-83.6 "/>
<path fill="none" stroke="black" d="M188.495,-83.6C182.495,-83.6 176.495,-77.6 176.495,-71.6"/>
<polyline fill="none" stroke="black" points="176.495,-71.6 176.495,-12.4 "/>
<path fill="none" stroke="black" d="M176.495,-12.4C176.495,-6.4 182.495,-0.4 188.495,-0.4"/>
<text text-anchor="middle" x="243" y="-65.6" font-family="Times,serif" font-size="14.00">LineItem</text>
<polyline fill="none" stroke="black" points="176.495,-58.8 309.505,-58.8 "/>
<text text-anchor="start" x="184.495" y="-40.8" font-family="Times,serif" font-size="14.00">created_at :datetime</text>
<text text-anchor="start" x="184.495" y="-24" font-family="Times,serif" font-size="14.00">updated_at :datetime</text>
<text text-anchor="start" x="184.495" y="-7.2" font-family="Times,serif" font-size="14.00">quantity :integer</text>
</g>
<!-- Cart&#45;&gt;LineItem -->
<g id="edge2" class="edge"><title>Cart&#45;&gt;LineItem</title>
<path fill="none" stroke="#269726" d="M173.834,-147.841C185.108,-130.753 198.454,-110.523 210.4,-92.4143"/>
<ellipse fill="none" stroke="#269726" cx="171.523" cy="-151.345" rx="4.00002" ry="4.00002"/>
<polygon fill="#269726" stroke="#269726" points="210.631,-92.0652 219.894,-86.1961 213.384,-87.8916 216.137,-83.718 216.137,-83.718 216.137,-83.718 213.384,-87.8916 212.381,-81.2399 210.631,-92.0652 210.631,-92.0652"/>
</g>
<!-- Order -->
<g id="node4" class="node"><title>Order</title>
<polyline fill="none" stroke="black" points="283.495,-121.2 392.505,-121.2 "/>
<path fill="none" stroke="black" d="M392.505,-121.2C398.505,-121.2 404.505,-127.2 404.505,-133.2"/>
<polyline fill="none" stroke="black" points="404.505,-133.2 404.505,-242.8 "/>
<path fill="none" stroke="black" d="M404.505,-242.8C404.505,-248.8 398.505,-254.8 392.505,-254.8"/>
<polyline fill="none" stroke="black" points="392.505,-254.8 283.495,-254.8 "/>
<path fill="none" stroke="black" d="M283.495,-254.8C277.495,-254.8 271.495,-248.8 271.495,-242.8"/>
<polyline fill="none" stroke="black" points="271.495,-242.8 271.495,-133.2 "/>
<path fill="none" stroke="black" d="M271.495,-133.2C271.495,-127.2 277.495,-121.2 283.495,-121.2"/>
<text text-anchor="middle" x="338" y="-236.8" font-family="Times,serif" font-size="14.00">Order</text>
<polyline fill="none" stroke="black" points="271.495,-230 404.505,-230 "/>
<text text-anchor="start" x="279.495" y="-212" font-family="Times,serif" font-size="14.00">name :string</text>
<text text-anchor="start" x="279.495" y="-195.2" font-family="Times,serif" font-size="14.00">address :text</text>
<text text-anchor="start" x="279.495" y="-178.4" font-family="Times,serif" font-size="14.00">email :string</text>
<text text-anchor="start" x="279.495" y="-161.6" font-family="Times,serif" font-size="14.00">pay_type :string</text>
<text text-anchor="start" x="279.495" y="-144.8" font-family="Times,serif" font-size="14.00">created_at :datetime</text>
<text text-anchor="start" x="279.495" y="-128" font-family="Times,serif" font-size="14.00">updated_at :datetime</text>
</g>
<!-- Order&#45;&gt;LineItem -->
<g id="edge4" class="edge"><title>Order&#45;&gt;LineItem</title>
<path fill="none" stroke="#7d6d89" d="M289.86,-114.03C285.007,-106.674 280.163,-99.3313 275.53,-92.3092"/>
<ellipse fill="none" stroke="#7d6d89" cx="292.19" cy="-117.561" rx="4.00002" ry="4.00002"/>
<polygon fill="#7d6d89" stroke="#7d6d89" points="275.298,-91.9564 273.547,-81.1311 272.544,-87.7828 269.791,-83.6092 269.791,-83.6092 269.791,-83.6092 272.544,-87.7828 266.035,-86.0873 275.298,-91.9564 275.298,-91.9564"/>
</g>
<!-- Product -->
<g id="node5" class="node"><title>Product</title>
<polyline fill="none" stroke="black" points="236.495,-292.8 345.505,-292.8 "/>
<path fill="none" stroke="black" d="M345.505,-292.8C351.505,-292.8 357.505,-298.8 357.505,-304.8"/>
<polyline fill="none" stroke="black" points="357.505,-304.8 357.505,-431.2 "/>
<path fill="none" stroke="black" d="M357.505,-431.2C357.505,-437.2 351.505,-443.2 345.505,-443.2"/>
<polyline fill="none" stroke="black" points="345.505,-443.2 236.495,-443.2 "/>
<path fill="none" stroke="black" d="M236.495,-443.2C230.495,-443.2 224.495,-437.2 224.495,-431.2"/>
<polyline fill="none" stroke="black" points="224.495,-431.2 224.495,-304.8 "/>
<path fill="none" stroke="black" d="M224.495,-304.8C224.495,-298.8 230.495,-292.8 236.495,-292.8"/>
<text text-anchor="middle" x="291" y="-425.2" font-family="Times,serif" font-size="14.00">Product</text>
<polyline fill="none" stroke="black" points="224.495,-418.4 357.505,-418.4 "/>
<text text-anchor="start" x="232.495" y="-400.4" font-family="Times,serif" font-size="14.00">title :string</text>
<text text-anchor="start" x="232.495" y="-383.6" font-family="Times,serif" font-size="14.00">description :text</text>
<text text-anchor="start" x="232.495" y="-366.8" font-family="Times,serif" font-size="14.00">image_url :string</text>
<text text-anchor="start" x="232.495" y="-350" font-family="Times,serif" font-size="14.00">price :decimal</text>
<text text-anchor="start" x="232.495" y="-333.2" font-family="Times,serif" font-size="14.00">created_at :datetime</text>
<text text-anchor="start" x="232.495" y="-316.4" font-family="Times,serif" font-size="14.00">updated_at :datetime</text>
<text text-anchor="start" x="232.495" y="-299.6" font-family="Times,serif" font-size="14.00">author :string</text>
</g>
<!-- Product&#45;&gt;LineItem -->
<g id="edge6" class="edge"><title>Product&#45;&gt;LineItem</title>
<path fill="none" stroke="#318eab" d="M267.874,-284.689C265.653,-275.068 263.627,-265.352 262,-256 252.427,-200.974 247.543,-137.064 245.144,-93.7136"/>
<ellipse fill="none" stroke="#318eab" cx="268.858" cy="-288.847" rx="4.00001" ry="4.00001"/>
<polygon fill="#318eab" stroke="#318eab" points="245.143,-93.6851 249.108,-83.4611 244.878,-88.6921 244.614,-83.6991 244.614,-83.6991 244.614,-83.6991 244.878,-88.6921 240.12,-83.9371 245.143,-93.6851 245.143,-93.6851"/>
</g>
<!-- Product&#45;&gt;Order -->
<g id="edge8" class="edge"><title>Product&#45;&gt;Order</title>
<path fill="none" stroke="#f4c6da" d="M313.225,-282.83C314.808,-276.832 316.4,-270.805 317.97,-264.858"/>
<polygon fill="#f4c6da" stroke="#f4c6da" points="313.213,-282.875 306.309,-291.394 311.936,-287.709 310.66,-292.543 310.66,-292.543 310.66,-292.543 311.936,-287.709 315.011,-293.692 313.213,-282.875 313.213,-282.875"/>
<polygon fill="#f4c6da" stroke="#f4c6da" points="318.035,-264.613 324.939,-256.094 319.311,-259.779 320.588,-254.945 320.588,-254.945 320.588,-254.945 319.311,-259.779 316.237,-253.796 318.035,-264.613 318.035,-264.613"/>
</g>
<!-- User -->
<g id="node6" class="node"><title>User</title>
<polyline fill="none" stroke="black" points="387.698,-318 512.302,-318 "/>
<path fill="none" stroke="black" d="M512.302,-318C518.302,-318 524.302,-324 524.302,-330"/>
<polyline fill="none" stroke="black" points="524.302,-330 524.302,-406 "/>
<path fill="none" stroke="black" d="M524.302,-406C524.302,-412 518.302,-418 512.302,-418"/>
<polyline fill="none" stroke="black" points="512.302,-418 387.698,-418 "/>
<path fill="none" stroke="black" d="M387.698,-418C381.698,-418 375.698,-412 375.698,-406"/>
<polyline fill="none" stroke="black" points="375.698,-406 375.698,-330 "/>
<path fill="none" stroke="black" d="M375.698,-330C375.698,-324 381.698,-318 387.698,-318"/>
<text text-anchor="middle" x="450" y="-400" font-family="Times,serif" font-size="14.00">User</text>
<polyline fill="none" stroke="black" points="375.698,-393.2 524.302,-393.2 "/>
<text text-anchor="start" x="383.698" y="-375.2" font-family="Times,serif" font-size="14.00">name :string</text>
<text text-anchor="start" x="383.698" y="-358.4" font-family="Times,serif" font-size="14.00">password_digest :string</text>
<text text-anchor="start" x="383.698" y="-341.6" font-family="Times,serif" font-size="14.00">created_at :datetime</text>
<text text-anchor="start" x="383.698" y="-324.8" font-family="Times,serif" font-size="14.00">updated_at :datetime</text>
</g>
</g>
</svg>
