<?xml version="1.0" encoding="UTF-8" standalone="no"?>
<!DOCTYPE svg PUBLIC "-//W3C//DTD SVG 1.1//EN"
 "http://www.w3.org/Graphics/SVG/1.1/DTD/svg11.dtd">
<!-- Generated by graphviz version 2.28.0 (20120309.2159)
 -->
<!-- Title: models_diagram Pages: 1 -->
<svg width="516pt" height="280pt"
 viewBox="0.00 0.00 516.00 280.00" xmlns="http://www.w3.org/2000/svg" xmlns:xlink="http://www.w3.org/1999/xlink">
<g id="graph1" class="graph" transform="scale(1 1) rotate(0) translate(4 276)">
<title>models_diagram</title>
<polygon fill="white" stroke="white" points="-4,5 -4,-276 513,-276 513,5 -4,5"/>
<!-- _diagram_info -->
<g id="node1" class="node"><title>_diagram_info</title>
<text text-anchor="start" x="7.31226" y="-222" font-family="Times,serif" font-size="13.00">Models diagram</text>
<text text-anchor="start" x="7.31226" y="-206.4" font-family="Times,serif" font-size="13.00">Date: Mar 09 2012 &#45; 22:21</text>
<text text-anchor="start" x="7.31226" y="-190.8" font-family="Times,serif" font-size="13.00">Migration version: 20120306195253</text>
<text text-anchor="start" x="7.31226" y="-175.2" font-family="Times,serif" font-size="13.00">Generated by RailRoady 1.0.7</text>
<text text-anchor="start" x="7.31226" y="-159.6" font-family="Times,serif" font-size="13.00">http://railroady.prestonlee.com</text>
</g>
<!-- Cart -->
<g id="node2" class="node"><title>Cart</title>
<polyline fill="none" stroke="black" points="236.495,-162.8 345.505,-162.8 "/>
<path fill="none" stroke="black" d="M345.505,-162.8C351.505,-162.8 357.505,-168.8 357.505,-174.8"/>
<polyline fill="none" stroke="black" points="357.505,-174.8 357.505,-217.2 "/>
<path fill="none" stroke="black" d="M357.505,-217.2C357.505,-223.2 351.505,-229.2 345.505,-229.2"/>
<polyline fill="none" stroke="black" points="345.505,-229.2 236.495,-229.2 "/>
<path fill="none" stroke="black" d="M236.495,-229.2C230.495,-229.2 224.495,-223.2 224.495,-217.2"/>
<polyline fill="none" stroke="black" points="224.495,-217.2 224.495,-174.8 "/>
<path fill="none" stroke="black" d="M224.495,-174.8C224.495,-168.8 230.495,-162.8 236.495,-162.8"/>
<text text-anchor="middle" x="291" y="-211.2" font-family="Times,serif" font-size="14.00">Cart</text>
<polyline fill="none" stroke="black" points="224.495,-204.4 357.505,-204.4 "/>
<text text-anchor="start" x="232.495" y="-186.4" font-family="Times,serif" font-size="14.00">created_at :datetime</text>
<text text-anchor="start" x="232.495" y="-169.6" font-family="Times,serif" font-size="14.00">updated_at :datetime</text>
</g>
<!-- LineItem -->
<g id="node3" class="node"><title>LineItem</title>
<polyline fill="none" stroke="black" points="311.495,-0.4 420.505,-0.4 "/>
<path fill="none" stroke="black" d="M420.505,-0.4C426.505,-0.4 432.505,-6.4 432.505,-12.4"/>
<polyline fill="none" stroke="black" points="432.505,-12.4 432.505,-71.6 "/>
<path fill="none" stroke="black" d="M432.505,-71.6C432.505,-77.6 426.505,-83.6 420.505,-83.6"/>
<polyline fill="none" stroke="black" points="420.505,-83.6 311.495,-83.6 "/>
<path fill="none" stroke="black" d="M311.495,-83.6C305.495,-83.6 299.495,-77.6 299.495,-71.6"/>
<polyline fill="none" stroke="black" points="299.495,-71.6 299.495,-12.4 "/>
<path fill="none" stroke="black" d="M299.495,-12.4C299.495,-6.4 305.495,-0.4 311.495,-0.4"/>
<text text-anchor="middle" x="366" y="-65.6" font-family="Times,serif" font-size="14.00">LineItem</text>
<polyline fill="none" stroke="black" points="299.495,-58.8 432.505,-58.8 "/>
<text text-anchor="start" x="307.495" y="-40.8" font-family="Times,serif" font-size="14.00">created_at :datetime</text>
<text text-anchor="start" x="307.495" y="-24" font-family="Times,serif" font-size="14.00">updated_at :datetime</text>
<text text-anchor="start" x="307.495" y="-7.2" font-family="Times,serif" font-size="14.00">quantity :integer</text>
</g>
<!-- Cart&#45;&gt;LineItem -->
<g id="edge2" class="edge"><title>Cart&#45;&gt;LineItem</title>
<path fill="none" stroke="#b7d1a0" d="M310.495,-155.491C319.953,-136.322 331.415,-113.092 341.462,-92.7306"/>
<ellipse fill="none" stroke="#b7d1a0" cx="308.676" cy="-159.178" rx="4.00002" ry="4.00002"/>
<polygon fill="#b7d1a0" stroke="#b7d1a0" points="341.541,-92.5699 350.002,-85.5934 343.754,-88.086 345.966,-83.6021 345.966,-83.6021 345.966,-83.6021 343.754,-88.086 341.931,-81.6109 341.541,-92.5699 341.541,-92.5699"/>
</g>
<!-- Product -->
<g id="node4" class="node"><title>Product</title>
<polyline fill="none" stroke="black" points="387.495,-120.8 496.505,-120.8 "/>
<path fill="none" stroke="black" d="M496.505,-120.8C502.505,-120.8 508.505,-126.8 508.505,-132.8"/>
<polyline fill="none" stroke="black" points="508.505,-132.8 508.505,-259.2 "/>
<path fill="none" stroke="black" d="M508.505,-259.2C508.505,-265.2 502.505,-271.2 496.505,-271.2"/>
<polyline fill="none" stroke="black" points="496.505,-271.2 387.495,-271.2 "/>
<path fill="none" stroke="black" d="M387.495,-271.2C381.495,-271.2 375.495,-265.2 375.495,-259.2"/>
<polyline fill="none" stroke="black" points="375.495,-259.2 375.495,-132.8 "/>
<path fill="none" stroke="black" d="M375.495,-132.8C375.495,-126.8 381.495,-120.8 387.495,-120.8"/>
<text text-anchor="middle" x="442" y="-253.2" font-family="Times,serif" font-size="14.00">Product</text>
<polyline fill="none" stroke="black" points="375.495,-246.4 508.505,-246.4 "/>
<text text-anchor="start" x="383.495" y="-228.4" font-family="Times,serif" font-size="14.00">title :string</text>
<text text-anchor="start" x="383.495" y="-211.6" font-family="Times,serif" font-size="14.00">description :text</text>
<text text-anchor="start" x="383.495" y="-194.8" font-family="Times,serif" font-size="14.00">image_url :string</text>
<text text-anchor="start" x="383.495" y="-178" font-family="Times,serif" font-size="14.00">price :decimal</text>
<text text-anchor="start" x="383.495" y="-161.2" font-family="Times,serif" font-size="14.00">created_at :datetime</text>
<text text-anchor="start" x="383.495" y="-144.4" font-family="Times,serif" font-size="14.00">updated_at :datetime</text>
<text text-anchor="start" x="383.495" y="-127.6" font-family="Times,serif" font-size="14.00">author :string</text>
</g>
<!-- Product&#45;&gt;LineItem -->
<g id="edge4" class="edge"><title>Product&#45;&gt;LineItem</title>
<path fill="none" stroke="#8e9953" d="M401.289,-113.577C397.718,-106.436 394.179,-99.3579 390.799,-92.5985"/>
<ellipse fill="none" stroke="#8e9953" cx="403.102" cy="-117.203" rx="4.00002" ry="4.00002"/>
<polygon fill="#8e9953" stroke="#8e9953" points="390.773,-92.5464 390.326,-81.5897 388.537,-88.0743 386.301,-83.6021 386.301,-83.6021 386.301,-83.6021 388.537,-88.0743 382.276,-85.6146 390.773,-92.5464 390.773,-92.5464"/>
</g>
</g>
</svg>
