<?xml version="1.0" encoding="UTF-8" standalone="no"?>
<!DOCTYPE svg PUBLIC "-//W3C//DTD SVG 1.1//EN"
 "http://www.w3.org/Graphics/SVG/1.1/DTD/svg11.dtd">
<!-- Generated by graphviz version 2.28.0 (20120309.2159)
 -->
<!-- Title: models_diagram Pages: 1 -->
<svg width="391pt" height="238pt"
 viewBox="0.00 0.00 391.00 238.00" xmlns="http://www.w3.org/2000/svg" xmlns:xlink="http://www.w3.org/1999/xlink">
<g id="graph1" class="graph" transform="scale(1 1) rotate(0) translate(4 234)">
<title>models_diagram</title>
<polygon fill="white" stroke="white" points="-4,5 -4,-234 388,-234 388,5 -4,5"/>
<!-- _diagram_info -->
<g id="node1" class="node"><title>_diagram_info</title>
<text text-anchor="start" x="7.31226" y="-213" font-family="Times,serif" font-size="13.00">Models diagram</text>
<text text-anchor="start" x="7.31226" y="-197.4" font-family="Times,serif" font-size="13.00">Date: Apr 04 2012 &#45; 17:59</text>
<text text-anchor="start" x="7.31226" y="-181.8" font-family="Times,serif" font-size="13.00">Migration version: 20120319171855</text>
<text text-anchor="start" x="7.31226" y="-166.2" font-family="Times,serif" font-size="13.00">Generated by RailRoady 1.0.7</text>
<text text-anchor="start" x="7.31226" y="-150.6" font-family="Times,serif" font-size="13.00">http://railroady.prestonlee.com</text>
</g>
<!-- Cart -->
<g id="node2" class="node"><title>Cart</title>
<ellipse fill="none" stroke="black" cx="179" cy="-90" rx="27.493" ry="18"/>
<text text-anchor="middle" x="179" y="-84.4" font-family="Times,serif" font-size="14.00">Cart</text>
</g>
<!-- LineItem -->
<g id="node3" class="node"><title>LineItem</title>
<ellipse fill="none" stroke="black" cx="235" cy="-18" rx="46.1448" ry="18"/>
<text text-anchor="middle" x="235" y="-12.4" font-family="Times,serif" font-size="14.00">LineItem</text>
</g>
<!-- Cart&#45;&gt;LineItem -->
<g id="edge2" class="edge"><title>Cart&#45;&gt;LineItem</title>
<path fill="none" stroke="#77a0a1" d="M196.286,-67.3922C202.297,-59.8791 209.083,-51.3964 215.276,-43.6555"/>
<ellipse fill="none" stroke="#77a0a1" cx="193.65" cy="-70.6876" rx="4.00002" ry="4.00002"/>
<polygon fill="#77a0a1" stroke="#77a0a1" points="215.451,-43.4366 225.212,-38.439 218.574,-39.5322 221.698,-35.6278 221.698,-35.6278 221.698,-35.6278 218.574,-39.5322 218.184,-32.8167 215.451,-43.4366 215.451,-43.4366"/>
</g>
<!-- Order -->
<g id="node4" class="node"><title>Order</title>
<ellipse fill="none" stroke="black" cx="297" cy="-90" rx="33.3348" ry="18"/>
<text text-anchor="middle" x="297" y="-84.4" font-family="Times,serif" font-size="14.00">Order</text>
</g>
<!-- Order&#45;&gt;LineItem -->
<g id="edge4" class="edge"><title>Order&#45;&gt;LineItem</title>
<path fill="none" stroke="#730e07" d="M277.814,-67.3382C270.987,-59.6307 263.262,-50.9083 256.271,-43.0154"/>
<ellipse fill="none" stroke="#730e07" cx="280.588" cy="-70.4704" rx="4.00002" ry="4.00002"/>
<polygon fill="#730e07" stroke="#730e07" points="256.216,-42.9531 252.954,-32.4835 252.9,-39.2101 249.585,-35.4672 249.585,-35.4672 249.585,-35.4672 252.9,-39.2101 246.217,-38.4509 256.216,-42.9531 256.216,-42.9531"/>
</g>
<!-- Product -->
<g id="node5" class="node"><title>Product</title>
<ellipse fill="none" stroke="black" cx="266" cy="-187" rx="41.1166" ry="18"/>
<text text-anchor="middle" x="266" y="-181.4" font-family="Times,serif" font-size="14.00">Product</text>
</g>
<!-- Product&#45;&gt;LineItem -->
<g id="edge6" class="edge"><title>Product&#45;&gt;LineItem</title>
<path fill="none" stroke="#4599f9" d="M261.29,-160.628C255.568,-129.799 245.95,-77.9903 240.07,-46.3115"/>
<ellipse fill="none" stroke="#4599f9" cx="262.069" cy="-164.824" rx="4.00001" ry="4.00001"/>
<polygon fill="#4599f9" stroke="#4599f9" points="240.055,-46.2314 242.654,-35.578 239.142,-41.3153 238.23,-36.3993 238.23,-36.3993 238.23,-36.3993 239.142,-41.3153 233.805,-37.2207 240.055,-46.2314 240.055,-46.2314"/>
</g>
<!-- Product&#45;&gt;Order -->
<g id="edge8" class="edge"><title>Product&#45;&gt;Order</title>
<path fill="none" stroke="#93b2b6" d="M274.691,-159.366C278.946,-146.327 284.055,-130.671 288.309,-117.632"/>
<polygon fill="#93b2b6" stroke="#93b2b6" points="274.644,-159.509 267.264,-167.62 273.093,-164.263 271.542,-169.016 271.542,-169.016 271.542,-169.016 273.093,-164.263 275.82,-170.412 274.644,-159.509 274.644,-159.509"/>
<polygon fill="#93b2b6" stroke="#93b2b6" points="288.404,-117.344 295.784,-109.233 289.955,-112.59 291.506,-107.837 291.506,-107.837 291.506,-107.837 289.955,-112.59 287.228,-106.441 288.404,-117.344 288.404,-117.344"/>
</g>
<!-- User -->
<g id="node6" class="node"><title>User</title>
<ellipse fill="none" stroke="black" cx="354" cy="-187" rx="28.9087" ry="18"/>
<text text-anchor="middle" x="354" y="-181.4" font-family="Times,serif" font-size="14.00">User</text>
</g>
</g>
</svg>
