<?xml version="1.0" encoding="UTF-8" standalone="no"?>
<!DOCTYPE svg PUBLIC "-//W3C//DTD SVG 1.1//EN"
 "http://www.w3.org/Graphics/SVG/1.1/DTD/svg11.dtd">
<!-- Generated by graphviz version 2.28.0 (20120309.2159)
 -->
<!-- Title: models_diagram Pages: 1 -->
<svg width="578pt" height="520pt"
 viewBox="0.00 0.00 578.00 520.00" xmlns="http://www.w3.org/2000/svg" xmlns:xlink="http://www.w3.org/1999/xlink">
<g id="graph1" class="graph" transform="scale(1 1) rotate(0) translate(4 516)">
<title>models_diagram</title>
<polygon fill="white" stroke="white" points="-4,5 -4,-516 575,-516 575,5 -4,5"/>
<!-- _diagram_info -->
<g id="node1" class="node"><title>_diagram_info</title>
<text text-anchor="start" x="7.31226" y="-428" font-family="Times,serif" font-size="13.00">Models diagram</text>
<text text-anchor="start" x="7.31226" y="-412.4" font-family="Times,serif" font-size="13.00">Date: Apr 04 2012 &#45; 17:59</text>
<text text-anchor="start" x="7.31226" y="-396.8" font-family="Times,serif" font-size="13.00">Migration version: 20120319171855</text>
<text text-anchor="start" x="7.31226" y="-381.2" font-family="Times,serif" font-size="13.00">Generated by RailRoady 1.0.7</text>
<text text-anchor="start" x="7.31226" y="-365.6" font-family="Times,serif" font-size="13.00">http://railroady.prestonlee.com</text>
</g>
<!-- Cart -->
<g id="node2" class="node"><title>Cart</title>
<polyline fill="none" stroke="black" points="116.495,-154.8 225.505,-154.8 "/>
<path fill="none" stroke="black" d="M225.505,-154.8C231.505,-154.8 237.505,-160.8 237.505,-166.8"/>
<polyline fill="none" stroke="black" points="237.505,-166.8 237.505,-209.2 "/>
<path fill="none" stroke="black" d="M237.505,-209.2C237.505,-215.2 231.505,-221.2 225.505,-221.2"/>
<polyline fill="none" stroke="black" points="225.505,-221.2 116.495,-221.2 "/>
<path fill="none" stroke="black" d="M116.495,-221.2C110.495,-221.2 104.495,-215.2 104.495,-209.2"/>
<polyline fill="none" stroke="black" points="104.495,-209.2 104.495,-166.8 "/>
<path fill="none" stroke="black" d="M104.495,-166.8C104.495,-160.8 110.495,-154.8 116.495,-154.8"/>
<text text-anchor="middle" x="171" y="-203.2" font-family="Times,serif" font-size="14.00">Cart</text>
<polyline fill="none" stroke="black" points="104.495,-196.4 237.505,-196.4 "/>
<text text-anchor="start" x="112.495" y="-178.4" font-family="Times,serif" font-size="14.00">created_at :datetime</text>
<text text-anchor="start" x="112.495" y="-161.6" font-family="Times,serif" font-size="14.00">updated_at :datetime</text>
</g>
<!-- LineItem -->
<g id="node3" class="node"><title>LineItem</title>
<polyline fill="none" stroke="black" points="211.495,-0.4 320.505,-0.4 "/>
<path fill="none" stroke="black" d="M320.505,-0.4C326.505,-0.4 332.505,-6.4 332.505,-12.4"/>
<polyline fill="none" stroke="black" points="332.505,-12.4 332.505,-71.6 "/>
<path fill="none" stroke="black" d="M332.505,-71.6C332.505,-77.6 326.505,-83.6 320.505,-83.6"/>
<polyline fill="none" stroke="black" points="320.505,-83.6 211.495,-83.6 "/>
<path fill="none" stroke="black" d="M211.495,-83.6C205.495,-83.6 199.495,-77.6 199.495,-71.6"/>
<polyline fill="none" stroke="black" points="199.495,-71.6 199.495,-12.4 "/>
<path fill="none" stroke="black" d="M199.495,-12.4C199.495,-6.4 205.495,-0.4 211.495,-0.4"/>
<text text-anchor="middle" x="266" y="-65.6" font-family="Times,serif" font-size="14.00">LineItem</text>
<polyline fill="none" stroke="black" points="199.495,-58.8 332.505,-58.8 "/>
<text text-anchor="start" x="207.495" y="-40.8" font-family="Times,serif" font-size="14.00">created_at :datetime</text>
<text text-anchor="start" x="207.495" y="-24" font-family="Times,serif" font-size="14.00">updated_at :datetime</text>
<text text-anchor="start" x="207.495" y="-7.2" font-family="Times,serif" font-size="14.00">quantity :integer</text>
</g>
<!-- Cart&#45;&gt;LineItem -->
<g id="edge2" class="edge"><title>Cart&#45;&gt;LineItem</title>
<path fill="none" stroke="#8e7544" d="M196.834,-147.841C208.108,-130.753 221.454,-110.523 233.4,-92.4143"/>
<ellipse fill="none" stroke="#8e7544" cx="194.523" cy="-151.345" rx="4.00002" ry="4.00002"/>
<polygon fill="#8e7544" stroke="#8e7544" points="233.631,-92.0652 242.894,-86.1961 236.384,-87.8916 239.137,-83.718 239.137,-83.718 239.137,-83.718 236.384,-87.8916 235.381,-81.2399 233.631,-92.0652 233.631,-92.0652"/>
</g>
<!-- Order -->
<g id="node4" class="node"><title>Order</title>
<polyline fill="none" stroke="black" points="306.495,-121.2 415.505,-121.2 "/>
<path fill="none" stroke="black" d="M415.505,-121.2C421.505,-121.2 427.505,-127.2 427.505,-133.2"/>
<polyline fill="none" stroke="black" points="427.505,-133.2 427.505,-242.8 "/>
<path fill="none" stroke="black" d="M427.505,-242.8C427.505,-248.8 421.505,-254.8 415.505,-254.8"/>
<polyline fill="none" stroke="black" points="415.505,-254.8 306.495,-254.8 "/>
<path fill="none" stroke="black" d="M306.495,-254.8C300.495,-254.8 294.495,-248.8 294.495,-242.8"/>
<polyline fill="none" stroke="black" points="294.495,-242.8 294.495,-133.2 "/>
<path fill="none" stroke="black" d="M294.495,-133.2C294.495,-127.2 300.495,-121.2 306.495,-121.2"/>
<text text-anchor="middle" x="361" y="-236.8" font-family="Times,serif" font-size="14.00">Order</text>
<polyline fill="none" stroke="black" points="294.495,-230 427.505,-230 "/>
<text text-anchor="start" x="302.495" y="-212" font-family="Times,serif" font-size="14.00">name :string</text>
<text text-anchor="start" x="302.495" y="-195.2" font-family="Times,serif" font-size="14.00">address :text</text>
<text text-anchor="start" x="302.495" y="-178.4" font-family="Times,serif" font-size="14.00">email :string</text>
<text text-anchor="start" x="302.495" y="-161.6" font-family="Times,serif" font-size="14.00">pay_type :string</text>
<text text-anchor="start" x="302.495" y="-144.8" font-family="Times,serif" font-size="14.00">created_at :datetime</text>
<text text-anchor="start" x="302.495" y="-128" font-family="Times,serif" font-size="14.00">updated_at :datetime</text>
</g>
<!-- Order&#45;&gt;LineItem -->
<g id="edge4" class="edge"><title>Order&#45;&gt;LineItem</title>
<path fill="none" stroke="#9409fa" d="M312.86,-114.03C308.007,-106.674 303.163,-99.3313 298.53,-92.3092"/>
<ellipse fill="none" stroke="#9409fa" cx="315.19" cy="-117.561" rx="4.00002" ry="4.00002"/>
<polygon fill="#9409fa" stroke="#9409fa" points="298.298,-91.9564 296.547,-81.1311 295.544,-87.7828 292.791,-83.6092 292.791,-83.6092 292.791,-83.6092 295.544,-87.7828 289.035,-86.0873 298.298,-91.9564 298.298,-91.9564"/>
</g>
<!-- Product -->
<g id="node5" class="node"><title>Product</title>
<polyline fill="none" stroke="black" points="236.56,-293.2 391.44,-293.2 "/>
<path fill="none" stroke="black" d="M391.44,-293.2C397.44,-293.2 403.44,-299.2 403.44,-305.2"/>
<polyline fill="none" stroke="black" points="403.44,-305.2 403.44,-498.8 "/>
<path fill="none" stroke="black" d="M403.44,-498.8C403.44,-504.8 397.44,-510.8 391.44,-510.8"/>
<polyline fill="none" stroke="black" points="391.44,-510.8 236.56,-510.8 "/>
<path fill="none" stroke="black" d="M236.56,-510.8C230.56,-510.8 224.56,-504.8 224.56,-498.8"/>
<polyline fill="none" stroke="black" points="224.56,-498.8 224.56,-305.2 "/>
<path fill="none" stroke="black" d="M224.56,-305.2C224.56,-299.2 230.56,-293.2 236.56,-293.2"/>
<text text-anchor="middle" x="314" y="-492.8" font-family="Times,serif" font-size="14.00">Product</text>
<polyline fill="none" stroke="black" points="224.56,-486 403.44,-486 "/>
<text text-anchor="start" x="232.56" y="-468" font-family="Times,serif" font-size="14.00">title :string</text>
<text text-anchor="start" x="232.56" y="-451.2" font-family="Times,serif" font-size="14.00">description :text</text>
<text text-anchor="start" x="232.56" y="-434.4" font-family="Times,serif" font-size="14.00">image_url :string</text>
<text text-anchor="start" x="232.56" y="-417.6" font-family="Times,serif" font-size="14.00">price :decimal</text>
<text text-anchor="start" x="232.56" y="-400.8" font-family="Times,serif" font-size="14.00">created_at :datetime</text>
<text text-anchor="start" x="232.56" y="-384" font-family="Times,serif" font-size="14.00">updated_at :datetime</text>
<text text-anchor="start" x="232.56" y="-367.2" font-family="Times,serif" font-size="14.00">author :string</text>
<text text-anchor="start" x="232.56" y="-350.4" font-family="Times,serif" font-size="14.00">picture_file_name :string</text>
<text text-anchor="start" x="232.56" y="-333.6" font-family="Times,serif" font-size="14.00">picture_content_type :string</text>
<text text-anchor="start" x="232.56" y="-316.8" font-family="Times,serif" font-size="14.00">picture_file_size :integer</text>
<text text-anchor="start" x="232.56" y="-300" font-family="Times,serif" font-size="14.00">picture_updated_at :datetime</text>
</g>
<!-- Product&#45;&gt;LineItem -->
<g id="edge6" class="edge"><title>Product&#45;&gt;LineItem</title>
<path fill="none" stroke="#510e5c" d="M289.684,-285.231C287.966,-275.367 286.373,-265.524 285,-256 277.055,-200.889 271.898,-137.247 268.989,-93.9835"/>
<ellipse fill="none" stroke="#510e5c" cx="290.389" cy="-289.203" rx="4.00001" ry="4.00001"/>
<polygon fill="#510e5c" stroke="#510e5c" points="268.988,-93.9648 272.823,-83.6913 268.66,-88.9755 268.333,-83.9862 268.333,-83.9862 268.333,-83.9862 268.66,-88.9755 263.842,-84.2812 268.988,-93.9648 268.988,-93.9648"/>
</g>
<!-- Product&#45;&gt;Order -->
<g id="edge8" class="edge"><title>Product&#45;&gt;Order</title>
<path fill="none" stroke="#0288a4" d="M340.136,-283.11C341.498,-276.967 342.848,-270.879 344.167,-264.928"/>
<polygon fill="#0288a4" stroke="#0288a4" points="340.078,-283.374 333.52,-292.163 338.995,-288.255 337.913,-293.137 337.913,-293.137 337.913,-293.137 338.995,-288.255 342.306,-294.111 340.078,-283.374 340.078,-283.374"/>
<polygon fill="#0288a4" stroke="#0288a4" points="344.191,-264.821 350.748,-256.032 345.273,-259.939 346.355,-255.058 346.355,-255.058 346.355,-255.058 345.273,-259.939 341.962,-254.084 344.191,-264.821 344.191,-264.821"/>
</g>
<!-- User -->
<g id="node6" class="node"><title>User</title>
<polyline fill="none" stroke="black" points="433.698,-352 558.302,-352 "/>
<path fill="none" stroke="black" d="M558.302,-352C564.302,-352 570.302,-358 570.302,-364"/>
<polyline fill="none" stroke="black" points="570.302,-364 570.302,-440 "/>
<path fill="none" stroke="black" d="M570.302,-440C570.302,-446 564.302,-452 558.302,-452"/>
<polyline fill="none" stroke="black" points="558.302,-452 433.698,-452 "/>
<path fill="none" stroke="black" d="M433.698,-452C427.698,-452 421.698,-446 421.698,-440"/>
<polyline fill="none" stroke="black" points="421.698,-440 421.698,-364 "/>
<path fill="none" stroke="black" d="M421.698,-364C421.698,-358 427.698,-352 433.698,-352"/>
<text text-anchor="middle" x="496" y="-434" font-family="Times,serif" font-size="14.00">User</text>
<polyline fill="none" stroke="black" points="421.698,-427.2 570.302,-427.2 "/>
<text text-anchor="start" x="429.698" y="-409.2" font-family="Times,serif" font-size="14.00">name :string</text>
<text text-anchor="start" x="429.698" y="-392.4" font-family="Times,serif" font-size="14.00">password_digest :string</text>
<text text-anchor="start" x="429.698" y="-375.6" font-family="Times,serif" font-size="14.00">created_at :datetime</text>
<text text-anchor="start" x="429.698" y="-358.8" font-family="Times,serif" font-size="14.00">updated_at :datetime</text>
</g>
</g>
</svg>
