<?xml version="1.0" encoding="UTF-8" standalone="no"?>
<!DOCTYPE svg PUBLIC "-//W3C//DTD SVG 1.1//EN"
 "http://www.w3.org/Graphics/SVG/1.1/DTD/svg11.dtd">
<!-- Generated by graphviz version 2.28.0 (20120309.2159)
 -->
<!-- Title: models_diagram Pages: 1 -->
<svg width="388pt" height="166pt"
 viewBox="0.00 0.00 388.00 166.00" xmlns="http://www.w3.org/2000/svg" xmlns:xlink="http://www.w3.org/1999/xlink">
<g id="graph1" class="graph" transform="scale(1 1) rotate(0) translate(4 162)">
<title>models_diagram</title>
<polygon fill="white" stroke="white" points="-4,5 -4,-162 385,-162 385,5 -4,5"/>
<!-- _diagram_info -->
<g id="node1" class="node"><title>_diagram_info</title>
<text text-anchor="start" x="7.31226" y="-141" font-family="Times,serif" font-size="13.00">Models diagram</text>
<text text-anchor="start" x="7.31226" y="-125.4" font-family="Times,serif" font-size="13.00">Date: Mar 09 2012 &#45; 22:21</text>
<text text-anchor="start" x="7.31226" y="-109.8" font-family="Times,serif" font-size="13.00">Migration version: 20120306195253</text>
<text text-anchor="start" x="7.31226" y="-94.2" font-family="Times,serif" font-size="13.00">Generated by RailRoady 1.0.7</text>
<text text-anchor="start" x="7.31226" y="-78.6" font-family="Times,serif" font-size="13.00">http://railroady.prestonlee.com</text>
</g>
<!-- Cart -->
<g id="node2" class="node"><title>Cart</title>
<ellipse fill="none" stroke="black" cx="252" cy="-115" rx="27.493" ry="18"/>
<text text-anchor="middle" x="252" y="-109.4" font-family="Times,serif" font-size="14.00">Cart</text>
</g>
<!-- LineItem -->
<g id="node3" class="node"><title>LineItem</title>
<ellipse fill="none" stroke="black" cx="295" cy="-18" rx="46.1448" ry="18"/>
<text text-anchor="middle" x="295" y="-12.4" font-family="Times,serif" font-size="14.00">LineItem</text>
</g>
<!-- Cart&#45;&gt;LineItem -->
<g id="edge2" class="edge"><title>Cart&#45;&gt;LineItem</title>
<path fill="none" stroke="#0dbfa1" d="M262.806,-90.1253C269.007,-76.4266 276.799,-59.2107 283.165,-45.1479"/>
<ellipse fill="none" stroke="#0dbfa1" cx="261.139" cy="-93.8082" rx="4.00002" ry="4.00002"/>
<polygon fill="#0dbfa1" stroke="#0dbfa1" points="283.183,-45.108 291.406,-37.8534 285.244,-40.5529 287.306,-35.9978 287.306,-35.9978 287.306,-35.9978 285.244,-40.5529 283.207,-34.1422 283.183,-45.108 283.183,-45.108"/>
</g>
<!-- Product -->
<g id="node4" class="node"><title>Product</title>
<ellipse fill="none" stroke="black" cx="339" cy="-115" rx="41.1166" ry="18"/>
<text text-anchor="middle" x="339" y="-109.4" font-family="Times,serif" font-size="14.00">Product</text>
</g>
<!-- Product&#45;&gt;LineItem -->
<g id="edge4" class="edge"><title>Product&#45;&gt;LineItem</title>
<path fill="none" stroke="#63bcca" d="M327.734,-89.675C321.388,-75.9735 313.463,-58.8642 307.001,-44.9116"/>
<ellipse fill="none" stroke="#63bcca" cx="329.453" cy="-93.3863" rx="4.00002" ry="4.00002"/>
<polygon fill="#63bcca" stroke="#63bcca" points="307.001,-44.9111 306.882,-33.9458 304.9,-40.3741 302.798,-35.8371 302.798,-35.8371 302.798,-35.8371 304.9,-40.3741 298.715,-37.7283 307.001,-44.9111 307.001,-44.9111"/>
</g>
</g>
</svg>
